<?xml version="1.0" encoding="UTF-8"?>
<!DOCTYPE svg PUBLIC "-//W3C//DTD SVG 1.1//EN" "http://www.w3.org/Graphics/SVG/1.1/DTD/svg11.dtd">
<!-- Creator: CorelDRAW -->
<svg xmlns="http://www.w3.org/2000/svg" xml:space="preserve" width="210mm" height="297mm" version="1.1" style="shape-rendering:geometricPrecision; text-rendering:geometricPrecision; image-rendering:optimizeQuality; fill-rule:evenodd; clip-rule:evenodd"
viewBox="0 0 21000 29700"
 xmlns:xlink="http://www.w3.org/1999/xlink">
 <defs>
  <style type="text/css">
   <![CDATA[
    .fil7 {fill:#223E6B}
    .fil2 {fill:#FEFEFE;fill-rule:nonzero}
    .fil0 {fill:#332C2B;fill-rule:nonzero}
    .fil4 {fill:#FBC700;fill-rule:nonzero}
    .fil3 {fill:#ED751E;fill-rule:nonzero}
    .fil5 {fill:#E62129;fill-rule:nonzero}
    .fil6 {fill:#006AB6;fill-rule:nonzero}
    .fil1 {fill:#E3C934;fill-rule:nonzero}
   ]]>
  </style>
    <clipPath id="id0">
     <path d="M-72719 12127l0 1650c417,4216 3968,7511 8295,7511l0 0c4602,0 8333,-3732 8333,-8336l0 0c0,-4599 -3731,-8331 -8333,-8331l0 0c-4327,0 -7878,3291 -8295,7506l0 0z"/>
    </clipPath>
    <clipPath id="id1">
     <path d="M-55339 22014c0,6873 5571,12452 12452,12452l0 0c6873,0 12452,-5579 12452,-12452l0 0c0,-6881 -5579,-12452 -12452,-12452l0 0c-6881,0 -12452,5571 -12452,12452l0 0z"/>
    </clipPath>
    <clipPath id="id2">
     <path d="M-44024 49c0,4598 3731,8329 8334,8329l0 0c4599,0 8329,-3731 8329,-8329l0 0c0,-4604 -3730,-8334 -8329,-8334l0 0c-4603,0 -8334,3730 -8334,8334l0 0z"/>
    </clipPath>
    <clipPath id="id3">
     <path d="M-40956 43764c0,4844 3925,8768 8767,8768l0 0c4808,0 8717,-3878 8767,-8675l0 0 0 -180c-50,-4803 -3959,-8680 -8767,-8680l0 0c-4842,0 -8767,3929 -8767,8767l0 0z"/>
    </clipPath>
 </defs>
<symbol id="Fm7-60-0" viewBox="111937 -17567 1681 2779">
 <path class="fil0" d="M113618 -17567l-1681 0 0 2726 0 53 1670 0 0 -53 0 -314 -53 0 -1238 0 0 -946 1291 0 0 -53 0 -313 -53 0 -1238 0 0 -734 1302 0 0 -53 0 -313zm-1576 2674l0 -2569 1471 0 0 156 -1302 0 0 52 0 891 53 0 1237 0 0 157 -1290 0 0 52 0 1103 53 0 1237 0 0 158 -1459 0z"/>
</symbol>
<symbol id="Fm6-59-0" viewBox="108695 -17635 2816 2914">
 <path class="fil0" d="M110232 -17635c-435,0 -805,138 -1097,416 -292,276 -441,621 -440,1025 0,384 121,716 364,989 287,322 683,484 1174,484l2 0c260,0 497,-48 710,-144 211,-96 390,-232 531,-407l35 -43 -45 -33 -255 -189 -32 36c-250,284 -555,421 -927,422 -339,-1 -613,-104 -833,-313 -221,-209 -329,-464 -329,-778 0,-206 49,-391 148,-556 96,-164 234,-295 414,-393 178,-98 372,-147 583,-147 194,0 371,37 531,113 160,74 297,183 411,329l33 40 40 -31 258 -193 -31 -42c-137,-185 -313,-329 -527,-432 -215,-102 -455,-153 -718,-153zm3 2809c-469,-1 -831,-150 -1098,-450 -225,-254 -337,-556 -337,-918 0,-379 135,-690 407,-949 274,-258 611,-386 1025,-386 250,0 473,47 673,142 183,88 334,207 456,358l-134 100c-117,-138 -257,-245 -417,-320 -174,-82 -367,-122 -575,-122 -227,0 -440,54 -634,160 -194,106 -347,251 -454,431 -109,181 -162,387 -162,610 -1,339 121,628 361,854 239,228 543,342 903,342 1,0 2,0 3,0 2,0 3,0 5,0 381,0 708,-143 969,-422l133 99c-125,142 -277,255 -457,337 -198,89 -420,134 -667,134z"/>
</symbol>
<symbol id="Fm23-39-0" viewBox="103491 -61172 1681 2779">
 <path class="fil0" d="M105173 -61172l-1682 0 0 2726 0 52 1671 0 0 -52 0 -315 -53 0 -1238 0 0 -945 1291 0 0 -53 0 -313 -53 0 -1238 0 0 -734 1302 0 0 -53 0 -313zm-1576 2674l0 -2570 1471 0 0 157 -1301 0 0 52 0 891 52 0 1237 0 0 157 -1289 0 0 52 0 1103 52 0 1237 0 0 158 -1459 0z"/>
</symbol>
<symbol id="Fm4-57-0" viewBox="105690 -17567 1823 2779">
 <path class="fil0" d="M106289 -17567l-599 0 0 2726 0 53 53 0 327 0 0 -53 0 -1191 142 0c343,0 578,-14 711,-45 180,-42 326,-126 432,-251 105,-126 158,-286 158,-474 0,-187 -55,-349 -163,-476 -107,-125 -247,-209 -413,-248 -120,-29 -333,-41 -648,-41zm-494 2674l0 -2569 494 0c312,0 524,13 624,39 146,34 265,105 357,213 91,108 138,240 138,408 0,169 -46,301 -134,407 -89,106 -212,178 -375,216 -112,27 -339,42 -667,42l-20 0 -248 0 0 53 0 1191 -169 0zm708 -2413l0 0zm0 0l-539 0 0 52 0 959 52 1 466 6c191,0 334,-16 433,-53l7 -4 6 -4 219 -172 5 -16 78 -264 -4 -15 -79 -262 -13 -11 -204 -163 -8 -3c-93,-36 -231,-51 -419,-51l0 52 0 53 10 0c170,0 295,16 364,41l179 143 65 216 -65 218 -185 145c-75,28 -204,45 -379,45l-9 0 -413 -5 0 -803 433 0 0 -53 0 -52zm400 100l0 0z"/>
</symbol>
<symbol id="Fm35-52-0" viewBox="132089 -61173 2816 2779">
 <path class="fil0" d="M133572 -61173l-33 0 -66 0 0 53 46 23 -46 -23 0 -53 -33 0 -1351 2779 84 0 339 0 15 -29 413 -850 1119 0 433 879 33 0 380 0 -1333 -2779zm-67 105l2 0 1232 2570 -181 0 -433 -880 -33 0 -1217 0 -15 29 -414 851 -189 0 1248 -2570zm0 396l-555 1141 84 0 940 0 0 -53 0 53 84 0 -553 -1141zm-388 1036l388 -795 386 795 -774 0zm857 52l-857 -52 857 52z"/>
</symbol>
<symbol id="Fm34-51-0" viewBox="130055 -61172 1920 2779">
 <path class="fil0" d="M130654 -61172l-599 0 0 2726 0 52 53 0 327 0 0 -52 0 -1189 77 0 990 1241 26 0 447 0 -991 -1244c185,-9 338,-37 456,-88 139,-60 250,-151 326,-270 76,-119 114,-258 114,-412 0,-186 -55,-347 -166,-476 -109,-129 -254,-213 -427,-251 -117,-26 -325,-37 -633,-37zm-494 2674l0 -2570 494 0c304,0 511,13 610,35 154,35 276,106 370,217 93,110 141,242 141,408 0,137 -33,254 -98,355 -64,101 -155,178 -279,230 -119,53 -295,81 -521,83l-108 2 989 1240 -205 0 -990 -1242 -25 0 -208 0 0 52 0 1190 -170 0zm707 -2413l0 0zm0 0l-537 0 0 52 0 961 52 1 474 4c187,0 327,-17 427,-55l8 -2 6 -6 219 -173 4 -16 78 -265 -4 -15 -80 -260 -13 -10 -204 -163 -6 -2c-94,-36 -233,-51 -424,-51l0 52 0 53 10 0c174,0 300,16 368,41l178 142 65 214 -64 219 -186 147c-76,28 -203,45 -373,45l-9 0 -421 -4 0 -804 432 0 0 -53 0 -52zm404 100l0 0z"/>
</symbol>
<symbol id="Symbol1" viewBox="73108 -52607 2851 2493">
 <path class="fil1" d="M75958 -50636l-1116 522c-555,-1184 -1220,-1387 -1691,-2393 -16,-34 -31,-67 -43,-100l0 0c531,435 1211,696 1951,696 176,0 348,-15 515,-44 58,387 142,801 384,1319z"/>
</symbol>
<symbol id="Fm39-56-0" viewBox="142166 -61173 2816 2779">
 <path class="fil0" d="M143649 -61173l-33 0 -67 0 0 53 48 23 -48 -23 0 -53 -32 0 -1351 2779 84 0 339 0 14 -29 414 -850 1119 0 433 879 33 0 380 0 -1333 -2779zm-67 105l2 0 1231 2570 -180 0 -433 -880 -33 0 -1218 0 -14 29 -414 851 -189 0 1248 -2570zm0 396l-555 1141 84 0 940 0 0 -53 0 53 83 0 -552 -1141zm-388 1036l388 -795 385 795 -773 0zm857 52l-857 -52 857 52z"/>
</symbol>
<symbol id="Fm28-44-0" viewBox="113842 -61172 2266 2779">
 <path class="fil0" d="M116107 -61172l-52 0 -324 0 0 1964 -1754 -1964 -23 0 -112 0 0 2778 52 0 285 0 0 -52 0 52 52 0 0 -1940 1739 1940 23 0 114 0 0 -2778zm-271 2240l0 -2136 167 0 0 2554 -1877 -2095 0 2111 -180 0 0 -2552 1890 2118z"/>
</symbol>
<symbol id="Fm25-41-0" viewBox="107770 -61172 380 2779">
 <path class="fil0" d="M108150 -61172l-52 0 -328 0 0 2726 0 53 53 0 327 0 0 -2779zm-275 105l170 0 0 2569 -170 0 0 -2569z"/>
</symbol>
<symbol id="Fm9-62-0" viewBox="116546 -17568 1612 2780">
 <path class="fil0" d="M118159 -17568l-1613 0 0 52 0 315 53 0 560 0 0 2413 53 0 334 0 0 -2413 613 0 0 -53 0 -314zm-1507 262l0 -157 1401 0 0 157 -612 0 0 2413 -177 0 0 -2361 0 -52 -52 0 -560 0zm560 52l0 0 0 53 0 -53z"/>
</symbol>
<symbol id="Fm32-49-0" viewBox="122998 -61172 3224 2779">
 <path class="fil0" d="M125811 -61172l-45 0 -77 0 -1074 2129 -1086 -2129 -32 0 -91 0 -408 2778 61 0 265 0 0 -52 0 52 46 0 253 -1807 923 1807 32 0 102 0 911 -1792 256 1792 45 0 330 0 -411 -2778zm-2692 2674l371 -2521 1125 2209 1113 -2206 372 2518 -163 0 -288 -2032 -1033 2032 -6 0 -1045 -2047 -287 2047 -159 0z"/>
</symbol>
<symbol id="Fm19-34-0" viewBox="142314 -17568 2816 2779">
 <path class="fil0" d="M143798 -17568l-33 0 -68 0 0 53 47 23 -47 -23 0 -53 -33 0 -1350 2780 84 0 339 0 14 -30 414 -850 1120 0 432 880 33 0 380 0 -1332 -2780zm-68 106l1 0 1233 2569 -182 0 -432 -880 -33 0 -1217 0 -14 30 -414 850 -190 0 1248 -2569zm0 396l-555 1140 84 0 940 0 0 -53 0 53 84 0 -553 -1140zm-387 1035l386 -795 387 795 -773 0zm856 52l-856 -52 856 52z"/>
</symbol>
<symbol id="Fm0-23-0" viewBox="98010 -17530 46954 2704">
 <path class="fil0" d="M135953 -17530c-113,0 -218,26 -314,77 -97,52 -169,119 -221,207 -53,87 -79,183 -79,291 0,135 44,258 134,377 49,66 191,188 418,356 230,168 392,314 483,440l4 6 97 271 5 16 -69 240 -4 14 -196 178 -10 9 -272 66 -6 1 -7 0c-230,0 -427,-149 -590,-422l-142 83c104,175 216,298 332,372l-26 41 1 0 26 -40c126,81 267,121 425,121 206,0 373,-65 517,-200 143,-135 210,-287 211,-467 0,-122 -41,-246 -125,-373 -82,-124 -241,-274 -477,-443 -201,-146 -318,-233 -360,-272l-3 -2 -139 -182 -7 -10 -40 -179 -2 -5 0 -6c0,-110 42,-208 123,-282 80,-74 185,-112 305,-112l3 0 6 0 246 66 7 2 6 3c74,45 154,124 247,237l141 -103c-111,-141 -216,-237 -309,-289 -105,-58 -219,-87 -339,-87zm-25721 1c-414,0 -751,128 -1025,386 -272,259 -407,570 -407,949 0,362 112,664 337,918 267,300 629,449 1098,450 247,0 469,-45 667,-134 180,-82 332,-195 457,-337l-133 -99c-261,279 -588,422 -969,422 -2,0 -3,0 -5,0 -1,0 -2,0 -3,0 -360,0 -664,-114 -903,-342 -240,-226 -362,-515 -361,-854 0,-223 53,-429 162,-610 107,-180 260,-325 454,-432 194,-105 407,-159 634,-159 208,0 401,40 575,122 160,75 300,182 417,320l134 -100c-122,-151 -273,-270 -456,-358 -200,-95 -423,-142 -673,-142zm28847 66l-168 0 0 1563c-1,213 -9,351 -31,431l-1 6 -126 246 -6 11 -218 164 -9 7 -273 59 -6 1 -5 0 -4 0c-113,0 -223,-27 -331,-77 -110,-51 -194,-115 -251,-196 -56,-80 -90,-176 -105,-288 -8,-54 -10,-172 -10,-364l0 -1563 -170 0 0 1563c0,267 17,454 47,548 51,158 147,283 297,380 148,97 328,146 542,146 195,0 356,-51 491,-153 135,-104 224,-223 269,-359 45,-139 69,-327 68,-562l0 -1563zm-16477 0l-168 0 0 1563c-1,213 -9,351 -31,431l-2 6 -126 246 -5 11 -219 164 -9 7 -273 59 -5 1 -5 0 -4 0c-113,0 -223,-27 -331,-77 -110,-51 -195,-115 -252,-196 -55,-80 -90,-176 -104,-288 -8,-54 -10,-172 -11,-364l0 -1563 -170 0 0 1563c0,267 18,454 48,548 51,158 146,283 297,380 148,97 328,146 541,146 196,0 357,-51 491,-153 136,-104 225,-223 269,-359 46,-139 70,-327 69,-562l0 -1563zm-4549 0l-1401 0 0 157 560 0 52 0 0 52 0 2361 176 0 0 -2413 613 0 0 -157zm-15870 0l-1402 0 0 157 560 0 53 0 0 52 0 2361 176 0 0 -2413 613 0 0 -157zm41548 1l-1 0 -1248 2569 190 0 414 -850 14 -30 1217 0 33 0 432 880 182 0 -1233 -2569zm-556 1536l555 -1140 553 1140 -84 0 0 -53 0 53 -940 0 -84 0zm-1255 -1536l-167 0 0 2135 -1889 -2117 0 2551 179 0 0 -2110 1877 2094 0 -2553zm-8265 0l-1 0 -1249 2569 190 0 414 -850 14 -30 1218 0 32 0 433 880 181 0 -1232 -2569zm-557 1536l555 -1140 553 1140 -84 0 0 -53 0 53 -940 0 -84 0zm-2296 -1536l-494 0 1 2569 169 0 0 -1189 0 -52 208 0 25 0 990 1241 205 0 -988 -1240 108 -1c225,-2 401,-31 521,-83 122,-53 214,-129 279,-230 64,-101 98,-219 98,-356 -1,-166 -48,-298 -142,-408 -94,-111 -215,-182 -370,-217 -98,-22 -306,-34 -610,-34zm214 156l0 0c190,0 329,15 422,51l8 3 204 162 12 11 80 259 4 16 -78 264 -5 16 -218 173 -7 5 -7 3c-99,39 -240,55 -427,55l-473 -4 -53 0 0 -962 0 -52 538 0zm-11952 -156l-495 0 0 2569 170 0 0 -1189 0 -52 208 0 25 0 989 1241 206 0 -989 -1240 109 -1c225,-2 401,-31 520,-83 123,-53 215,-129 280,-230 64,-101 97,-219 98,-356 -1,-166 -48,-298 -142,-408 -94,-111 -215,-182 -370,-217 -98,-22 -306,-34 -609,-34zm213 156l0 0c190,0 329,15 422,51l8 3 204 162 12 11 80 259 4 16 -78 264 -5 16 -219 173 -6 5 -7 3c-99,39 -240,55 -427,55l-474 -4 -52 0 0 -962 0 -52 538 0zm-3126 -156l-167 0 0 2135 -1889 -2117 0 2551 180 0 0 -2110 1876 2094 0 -2553zm-2638 0l-1471 0 0 2569 1459 0 0 -158 -1237 0 -53 0 0 -1103 0 -52 1290 0 0 -156 -1237 0 -53 0 0 -892 0 -52 1302 0 0 -156zm-7224 0l-494 0 0 2569 169 0 0 -1191 0 -53 248 0 20 0c328,0 555,-15 667,-42 163,-38 286,-110 375,-216 88,-106 134,-238 134,-407 0,-168 -47,-300 -138,-408 -92,-108 -211,-179 -357,-213 -100,-26 -312,-39 -624,-39zm214 156l0 0c188,0 326,15 419,51l8 3 204 163 13 11 79 262 4 15 -78 264 -5 16 -219 172 -6 4 -7 4c-99,37 -242,53 -433,53l-466 -6 -52 -1 0 -959 0 -52 539 0zm-1287 -156l-1471 0 0 2569 1460 0 0 -158 -1237 0 -53 0 0 -1103 0 -52 1290 0 0 -156 -1237 0 -53 0 0 -892 0 -52 1301 0 0 -156zm-5956 0l-2 0 -1248 2569 190 0 414 -850 14 -30 1218 0 32 0 433 880 181 0 -1232 -2569zm-557 1536l555 -1140 553 1140 -83 0 0 -53 0 53 -941 0 -84 0zm9490 -1536l-170 0 1 2569 169 0 0 -2569zm15445 49l-371 2520 159 0 287 -2046 1045 2046 6 0 1033 -2033 288 2033 164 0 -373 -2518 -1113 2206 -1125 -2208zm5035 1508l-923 0 0 117 923 0 0 -117z"/>
</symbol>
<symbol id="Fm20-36-0" viewBox="97862 -61135 46953 2704">
 <path class="fil0" d="M135805 -61135c-114,0 -218,26 -315,77 -96,52 -169,119 -220,207 -54,87 -80,183 -80,291 1,135 44,258 135,377 48,65 190,188 417,355 230,169 392,314 483,441l5 6 96 270 6 16 -68 240 -5 15 -197 177 -10 10 -272 65 -6 2 -6 0c-230,0 -427,-150 -590,-422l-143 83c105,175 216,298 333,372l-26 40 0 1 26 -40c127,81 267,121 426,121 206,0 372,-66 516,-201 143,-135 211,-286 211,-466 0,-122 -41,-246 -124,-373 -82,-124 -242,-274 -477,-443 -202,-146 -319,-233 -360,-272l-3 -2 -140 -183 -7 -9 -40 -179 -1 -6 0 -6c-1,-109 41,-207 123,-281 79,-74 184,-112 305,-112l2 0 7 0 245 65 7 3 6 3c75,45 155,124 248,237l140 -103c-111,-142 -215,-237 -309,-290 -104,-57 -218,-86 -338,-86zm-25721 0c-414,0 -752,129 -1025,386 -272,260 -407,571 -407,950 0,362 111,664 337,918 267,300 629,449 1098,450 247,0 469,-45 666,-134 180,-82 333,-195 458,-337l-133 -99c-261,279 -589,421 -969,421 -2,0 -3,0 -5,0 -1,0 -2,0 -3,0 -360,0 -664,-114 -903,-341 -239,-226 -362,-515 -362,-854 0,-223 54,-429 163,-610 106,-180 259,-325 454,-432 194,-106 407,-160 634,-160 207,0 400,41 574,123 161,74 300,182 418,320l134 -100c-122,-152 -274,-271 -457,-358 -199,-95 -422,-143 -672,-143zm28847 67l-169 0 0 1563c0,213 -8,351 -30,431l-1 5 -127 246 -5 11 -218 165 -10 7 -273 59 -4 1 -7 0 -3 0c-113,0 -223,-27 -331,-77 -110,-51 -195,-115 -251,-197 -56,-79 -90,-176 -104,-287 -9,-55 -12,-172 -12,-364l0 -1563 -169 0 0 1563c-1,267 17,454 47,547 51,159 146,284 297,381 148,96 328,146 541,146 196,0 357,-51 491,-153 136,-104 225,-223 270,-359 45,-139 68,-327 68,-562l0 -1563zm-16477 0l-169 0 0 1563c0,213 -9,351 -30,431l-1 5 -127 246 -5 11 -219 165 -9 7 -273 59 -5 1 -6 0 -4 0c-112,0 -222,-27 -331,-77 -109,-51 -194,-115 -250,-197 -56,-79 -90,-176 -105,-287 -8,-55 -11,-172 -11,-364l0 -1563 -170 0 0 1563c0,267 18,454 48,547 50,159 146,284 297,381 148,96 327,146 541,146 195,0 356,-51 491,-153 136,-104 225,-223 269,-359 46,-139 69,-327 69,-562l0 -1563zm-4548 0l-1403 0 0 157 560 0 53 0 0 52 0 2361 176 0 0 -2413 614 0 0 -157zm-15871 0l-1402 0 0 157 560 0 53 0 0 52 0 2361 176 0 0 -2413 613 0 0 -157zm41548 0l-1 0 -1248 2570 189 0 414 -851 14 -29 1218 0 33 0 433 880 180 0 -1232 -2570zm-557 1537l556 -1141 552 1141 -83 0 0 -53 0 53 -940 0 -85 0zm-1255 -1537l-166 0 0 2136 -1889 -2118 0 2552 179 0 0 -2111 1876 2095 0 -2554zm-8264 0l-2 0 -1248 2570 189 0 414 -851 15 -29 1217 0 33 0 433 880 181 0 -1232 -2570zm-557 1537l555 -1141 553 1141 -84 0 0 -53 0 53 -940 0 -84 0zm-2296 -1537l-494 0 0 2570 170 0 0 -1190 0 -52 208 0 25 0 990 1242 205 0 -989 -1240 108 -2c226,-2 402,-30 521,-83 124,-52 215,-129 279,-230 65,-101 98,-218 98,-355 0,-166 -48,-298 -141,-408 -94,-111 -216,-182 -370,-217 -99,-22 -306,-35 -610,-35zm213 157l0 0c191,0 330,15 424,51l6 2 204 163 13 10 80 260 4 15 -78 265 -4 16 -219 173 -6 6 -8 2c-100,38 -240,55 -427,55l-474 -4 -52 -1 0 -961 0 -52 537 0zm-11952 -157l-494 0 0 2570 170 0 0 -1190 0 -52 208 0 25 0 990 1242 204 0 -988 -1240 108 -2c226,-2 402,-30 521,-83 123,-52 214,-129 279,-230 65,-101 98,-218 98,-355 0,-166 -48,-298 -142,-408 -93,-111 -215,-182 -369,-217 -99,-22 -306,-35 -610,-35zm213 157l0 0c191,0 330,15 423,51l8 2 203 163 13 10 79 260 4 15 -77 265 -5 16 -218 173 -7 5 -7 3c-100,38 -240,55 -427,55l-474 -4 -52 -1 0 -961 0 -52 537 0zm-3125 -157l-167 0 0 2136 -1890 -2118 0 2552 180 0 0 -2111 1877 2095 0 -2554zm-2638 0l-1472 0 0 2570 1460 0 0 -158 -1237 0 -53 0 0 -1103 0 -52 1290 0 0 -157 -1237 0 -53 0 0 -891 0 -52 1302 0 0 -157zm-7224 0l-495 0 1 2570 170 0 0 -1191 0 -53 247 0 20 0c328,0 555,-16 667,-42 163,-39 285,-111 375,-217 88,-106 133,-238 133,-406 0,-168 -46,-301 -137,-408 -93,-108 -211,-180 -357,-214 -101,-25 -313,-39 -624,-39zm214 157l0 0c188,0 325,15 418,51l8 3 205 163 12 10 80 263 5 15 -80 264 -5 16 -218 171 -7 5 -7 3c-99,37 -241,54 -432,54l-466 -7 -51 0 0 -959 0 -52 538 0zm-1287 -157l-1471 0 0 2570 1459 0 0 -158 -1237 0 -52 0 0 -1103 0 -52 1289 0 0 -157 -1237 0 -52 0 0 -891 0 -52 1301 0 0 -157zm-5957 0l0 0 -1249 2570 190 0 414 -851 14 -29 1218 0 33 0 432 880 181 0 -1233 -2570zm-556 1537l555 -1141 553 1141 -84 0 0 -53 0 53 -940 0 -84 0zm9490 -1536l-170 0 0 2569 170 0 0 -2569zm15445 48l-371 2521 159 0 287 -2047 1044 2047 7 0 1033 -2032 288 2032 164 0 -373 -2518 -1113 2206 -1125 -2209zm5034 1509l-923 0 0 117 923 0 0 -117z"/>
</symbol>
<symbol id="Fm1-34-0" viewBox="75532 -51044 12622 8310">
 <path class="fil1" d="M88154 -48631c0,4105 -2810,5887 -6283,5896l-57 0c-3471,-9 -6280,-1790 -6282,-5891l0 -42c2,-777 69,-1582 208,-2376l0 0c-39,423 -58,844 -58,1257 0,4018 2758,5756 6161,5756 3402,0 6160,-1738 6160,-5756 0,-413 -18,-834 -57,-1257l0 0c141,806 208,1624 208,2413z"/>
</symbol>
<symbol id="Fm31-48-0" viewBox="120634 -61173 1925 2847">
 <path class="fil0" d="M122559 -61173l-53 0 -326 0 0 1668c0,202 -10,338 -25,397l-116 227 -190 143 -244 53c-96,-1 -189,-22 -285,-68 -99,-45 -167,-99 -209,-161 -45,-63 -74,-142 -87,-242 -7,-38 -10,-160 -10,-349l0 -1668 -53 0 -327 0 0 1668c0,273 16,463 53,579 57,181 171,329 339,437 167,109 368,163 595,163l4 0 4 0c212,0 397,-58 551,-174 149,-114 253,-252 305,-410 50,-156 73,-353 74,-595l0 -1668zm-953 2593l4 0 6 0 5 -1 273 -59 9 -7 219 -165 5 -11 127 -246 1 -5c21,-80 30,-218 30,-431l0 -1563 169 0 0 1563c0,235 -23,423 -69,562 -44,136 -133,255 -269,359 -135,102 -296,153 -491,153 -214,0 -393,-49 -541,-146 -151,-97 -247,-222 -297,-381 -30,-93 -48,-280 -48,-547l0 -1563 170 0 0 1563c0,192 3,309 11,364 15,111 49,208 105,287 56,82 141,146 250,197 109,50 219,77 331,77z"/>
</symbol>
<symbol id="Fm15-30-0" viewBox="132238 -17568 2816 2779">
 <path class="fil0" d="M133721 -17568l-33 0 -67 0 0 53 47 23 -47 -23 0 -53 -33 0 -1350 2780 83 0 339 0 15 -30 414 -850 1119 0 432 880 33 0 381 0 -1333 -2780zm-67 106l1 0 1232 2569 -181 0 -433 -880 -32 0 -1218 0 -14 30 -414 850 -190 0 1249 -2569zm-1 396l-555 1140 84 0 940 0 0 -53 0 53 84 0 -553 -1140zm-387 1035l387 -795 386 795 -773 0zm856 52l-856 -52 856 52z"/>
</symbol>
<symbol id="Fm38-55-0" viewBox="139611 -61172 2266 2779">
 <path class="fil0" d="M141877 -61172l-53 0 -324 0 0 1964 -1754 -1964 -23 0 -112 0 0 2778 52 0 285 0 0 -52 0 52 52 0 0 -1940 1739 1940 23 0 115 0 0 -2778zm-272 2240l0 -2136 166 0 0 2554 -1876 -2095 0 2111 -179 0 0 -2552 1889 2118z"/>
</symbol>
<symbol id="Fm33-50-0" viewBox="127496 -59615 1133 327">
 <path class="fil0" d="M128629 -59615l-53 0 -1080 0 0 53 0 221 0 52 53 0 1080 0 0 -52 0 -274zm-1028 105l923 0 0 117 -923 0 0 -117z"/>
</symbol>
<symbol id="Fm24-40-0" viewBox="105541 -61172 1823 2779">
 <path class="fil0" d="M106141 -61172l-600 0 0 2726 0 52 53 0 327 0 0 -52 0 -1191 143 0c343,0 578,-14 711,-46 180,-41 326,-125 432,-250 105,-126 157,-286 157,-474 0,-187 -53,-349 -162,-476 -107,-125 -247,-210 -412,-248 -121,-30 -333,-41 -649,-41zm-494 2674l-1 -2570 495 0c311,0 523,14 624,39 146,34 264,106 357,214 91,107 137,240 137,408 0,168 -45,300 -133,406 -90,106 -212,178 -375,217 -112,26 -339,42 -667,42l-20 0 -247 0 0 53 0 1191 -170 0zm708 -2413l0 0zm0 0l-538 0 0 52 0 959 51 0 466 7c191,0 333,-17 432,-54l7 -3 7 -5 218 -171 5 -16 80 -264 -5 -15 -80 -263 -12 -10 -205 -163 -8 -3c-93,-36 -230,-51 -418,-51l0 52 0 53 9 0c171,0 296,16 365,41l178 143 66 216 -66 218 -185 145c-75,28 -204,45 -378,45l-9 0 -414 -6 0 -802 434 0 0 -53 0 -52zm400 100l0 0z"/>
</symbol>
<symbol id="Fm16-31-0" viewBox="135041 -17635 1733 2914">
 <path class="fil0" d="M135957 -17635l-4 0 -4 0c-128,0 -249,31 -360,89 -111,59 -200,141 -261,246 -63,103 -94,221 -94,345 0,159 53,307 156,441 65,85 208,205 438,376 222,162 376,302 456,412l86 240 -55 193 -164 149 -239 58c-188,-1 -361,-129 -521,-414l-26 -48 -46 28 -278 163 26 44c117,209 246,360 393,454 143,93 306,139 482,139 229,0 428,-77 588,-230 161,-150 245,-335 244,-543 0,-146 -48,-291 -141,-431 -95,-142 -263,-297 -504,-470 -196,-142 -316,-232 -348,-262l-124 -164 -34 -147 88 -202c59,-54 132,-83 228,-85l226 61c61,38 146,121 244,246l32 40 40 -29 268 -197 -32 -42c-129,-172 -252,-291 -375,-360 -119,-66 -249,-100 -385,-100zm-41 2654l7 0 6 -1 272 -66 9 -9 197 -178 4 -15 69 -239 -5 -16 -97 -271 -5 -6c-91,-126 -252,-272 -482,-440 -228,-168 -369,-290 -418,-356 -90,-119 -134,-242 -134,-377 0,-108 26,-204 79,-291 51,-88 124,-155 221,-207 96,-51 201,-77 314,-77 120,0 234,29 339,87 93,52 198,148 309,289l-141 103c-93,-113 -173,-192 -247,-237l-6 -3 -7 -2 -246 -66 -6 0 -3 0c-120,0 -225,38 -305,112 -81,74 -123,172 -123,282l0 6 2 5 40 179 7 10 139 182 3 2c42,39 159,126 360,272 236,169 395,319 477,443 84,127 125,251 125,373 -1,180 -68,331 -211,467 -144,135 -311,200 -517,200 -158,0 -299,-40 -425,-121l-26 40 -3 4 3 -4 25 -41c-116,-74 -228,-197 -332,-372l142 -83c163,273 360,422 590,422zm270 -2261l0 0zm145 1491l0 0z"/>
</symbol>
<symbol id="Fm12-27-0" viewBox="123146 -17567 3225 2779">
 <path class="fil0" d="M125959 -17567l-45 0 -77 0 -1074 2130 -1086 -2130 -32 0 -90 0 -409 2779 60 0 266 0 0 -53 0 53 46 0 253 -1807 922 1807 33 0 102 0 912 -1793 254 1793 46 0 330 0 -411 -2779zm-2692 2674l371 -2520 1125 2208 1113 -2206 373 2518 -164 0 -288 -2033 -1033 2033 -6 0 -1045 -2046 -287 2046 -159 0z"/>
</symbol>
<symbol id="Fm6-39-0" viewBox="72890 -49863 4543 4616">
 <path class="fil1" d="M77434 -46548c-406,513 -1060,1001 -1744,1230 -1089,364 -1541,-759 -1895,-1533 -335,-735 -902,-1625 -905,-2475l0 -17c1,-69 5,-139 13,-208 14,-110 44,-214 86,-312l0 0c642,1870 2378,3230 4445,3314l0 1z"/>
</symbol>
<symbol id="Fm26-42-0" viewBox="108546 -61240 2816 2914">
 <path class="fil0" d="M110084 -61240c-435,-1 -805,138 -1097,415 -292,277 -441,622 -441,1026 0,383 122,716 364,988 287,323 684,485 1174,485l3 0c260,0 497,-48 709,-144 212,-96 390,-232 532,-408l34 -42 -44 -33 -255 -189 -32 36c-251,283 -555,421 -927,422 -340,-1 -613,-104 -834,-313 -220,-209 -328,-464 -329,-778 0,-206 50,-392 148,-557 97,-163 234,-294 415,-392 178,-98 372,-147 583,-147 194,0 370,37 530,113 160,73 297,183 413,329l31 39 41 -30 258 -193 -31 -42c-137,-185 -314,-330 -527,-432 -215,-102 -455,-153 -718,-153zm3 2808c-469,0 -831,-149 -1098,-449 -226,-254 -337,-556 -337,-918 0,-379 135,-690 407,-950 273,-257 611,-386 1025,-386 250,0 473,48 672,143 183,87 335,206 457,358l-134 100c-118,-138 -257,-246 -418,-320 -174,-82 -367,-123 -574,-123 -227,0 -440,54 -634,160 -195,107 -348,252 -454,432 -109,181 -163,387 -163,610 0,339 123,628 362,854 239,227 543,341 903,341 1,0 2,0 3,0 2,0 3,0 5,0 380,0 708,-142 969,-421l133 99c-125,142 -278,255 -458,337 -197,89 -419,133 -666,133z"/>
</symbol>
<symbol id="Fm3-46-0" viewBox="103640 -17567 1681 2779">
 <path class="fil0" d="M105321 -17567l-1681 0 0 2726 0 53 1670 0 0 -53 0 -314 -53 0 -1237 0 0 -946 1290 0 0 -53 0 -313 -53 0 -1237 0 0 -734 1301 0 0 -53 0 -313zm-1576 2674l0 -2569 1471 0 0 156 -1301 0 0 52 0 891 53 0 1237 0 0 157 -1290 0 0 52 0 1103 53 0 1237 0 0 158 -1460 0z"/>
</symbol>
<symbol id="Fm21-37-0" viewBox="97695 -61173 2816 2779">
 <path class="fil0" d="M99178 -61173l-33 0 -68 0 0 53 48 23 -48 -23 0 -53 -32 0 -1350 2779 84 0 338 0 15 -29 414 -850 1119 0 432 879 33 0 381 0 -1333 -2779zm-67 105l1 0 1232 2570 -181 0 -432 -880 -33 0 -1218 0 -14 29 -414 851 -190 0 1249 -2570zm-1 396l-555 1141 84 0 940 0 0 -53 0 53 84 0 -553 -1141zm-387 1036l387 -795 386 795 -773 0zm856 52l-856 -52 856 52z"/>
</symbol>
<symbol id="Fm17-32-0" viewBox="137260 -17568 1925 2847">
 <path class="fil0" d="M139185 -17568l-53 0 -327 0 0 1668c1,205 -9,342 -26,400l-114 224 -191 144 -243 52c-96,-1 -190,-22 -286,-67 -98,-46 -167,-99 -209,-161 -44,-64 -73,-143 -87,-243 -6,-38 -9,-160 -9,-349l0 -1668 -53 0 -327 0 0 1668c0,273 16,463 53,579 56,181 170,329 339,437 166,109 366,163 595,163l4 0 3 0c212,0 398,-58 551,-174 149,-114 254,-252 305,-410 51,-156 75,-353 75,-595l0 -1668zm-953 2593l4 0 5 0 6 -1 273 -59 9 -7 218 -164 6 -11 126 -246 1 -6c22,-80 30,-218 31,-431l0 -1563 168 0 0 1563c1,235 -23,423 -68,562 -45,136 -134,255 -269,359 -135,102 -296,153 -491,153 -214,0 -394,-49 -542,-146 -150,-97 -246,-222 -297,-380 -30,-94 -47,-281 -47,-548l0 -1563 170 0 0 1563c0,192 2,310 10,364 15,112 49,208 105,288 57,81 141,145 251,196 108,50 218,77 331,77z"/>
</symbol>
<symbol id="Fm5-58-0" viewBox="107918 -17567 380 2779">
 <path class="fil0" d="M108298 -17567l-52 0 -328 0 0 2726 0 53 53 0 327 0 0 -2779zm-274 2674l-1 -2569 170 0 0 2569 -169 0z"/>
</symbol>
<symbol id="Fm37-54-0" viewBox="137111 -61173 1925 2847">
 <path class="fil0" d="M139036 -61173l-52 0 -326 0 0 1668c0,205 -11,342 -26,400l-116 224 -190 143 -244 53c-96,-1 -189,-22 -285,-68 -99,-45 -167,-99 -209,-161 -45,-63 -74,-142 -87,-242 -6,-38 -10,-160 -10,-349l0 -1668 -52 0 -328 0 0 1668c1,273 16,463 53,579 57,181 171,329 340,437 166,109 367,163 594,163l4 0 4 0c212,0 398,-58 551,-174 149,-114 253,-252 305,-410 51,-156 74,-353 74,-595l0 -1668zm-952 2593l3 0 7 0 4 -1 273 -59 10 -7 218 -165 5 -11 127 -246 1 -5c22,-80 30,-218 30,-431l0 -1563 169 0 0 1563c0,235 -23,423 -68,562 -45,136 -134,255 -270,359 -134,102 -295,153 -491,153 -213,0 -393,-49 -541,-146 -151,-97 -246,-222 -297,-381 -30,-93 -48,-280 -47,-547l0 -1563 169 0 0 1563c0,192 3,309 12,364 14,111 48,208 104,287 56,82 141,146 251,197 108,50 218,77 331,77z"/>
</symbol>
<symbol id="Fm27-43-0" viewBox="111788 -61172 1682 2779">
 <path class="fil0" d="M113470 -61172l-1682 0 0 2726 0 52 1670 0 0 -52 0 -315 -52 0 -1238 0 0 -945 1290 0 0 -53 0 -313 -52 0 -1238 0 0 -734 1302 0 0 -53 0 -313zm-1577 2674l0 -2570 1472 0 0 157 -1302 0 0 52 0 891 53 0 1237 0 0 157 -1290 0 0 52 0 1103 53 0 1237 0 0 158 -1460 0z"/>
</symbol>
<symbol id="Fm2-35-0" viewBox="100676 -17568 1612 2780">
 <path class="fil0" d="M102288 -17568l-1612 0 0 52 0 315 52 0 561 0 0 2413 52 0 334 0 0 -2413 613 0 0 -53 0 -314zm-1507 262l0 -157 1402 0 0 157 -613 0 0 2413 -176 0 0 -2361 0 -52 -53 0 -560 0zm560 52l0 0 0 53 0 -53z"/>
</symbol>
<symbol id="Fm1-24-0" viewBox="97843 -17568 2816 2779">
 <path class="fil0" d="M99326 -17568l-33 0 -67 0 0 53 47 23 -47 -23 0 -53 -33 0 -1350 2780 84 0 339 0 14 -30 414 -850 1119 0 433 880 33 0 379 0 -1332 -2780zm-68 106l2 0 1232 2569 -181 0 -433 -880 -32 0 -1218 0 -14 30 -414 850 -190 0 1248 -2569zm0 396l-555 1140 84 0 941 0 0 -53 0 53 83 0 -553 -1140zm-387 1035l387 -795 386 795 -773 0zm857 52l-857 -52 857 52z"/>
</symbol>
<symbol id="Fm3-36-0" viewBox="78997 -48395 5702 2518">
 <path class="fil1" d="M84585 -48382c12,-8 24,-12 36,-13l9 0c53,3 93,68 53,119 -589,739 -2005,2398 -2840,2399l-1 0c-829,-1 -2232,-1639 -2827,-2384 -55,-68 29,-159 101,-111l2225 1459c304,200 699,200 1004,0l2240 -1469z"/>
</symbol>
<symbol id="Fm29-45-0" viewBox="116398 -61173 1612 2780">
 <path class="fil0" d="M118010 -61173l-1612 0 0 52 0 315 52 0 561 0 0 2413 52 0 335 0 0 -2413 612 0 0 -53 0 -314zm-1507 262l0 -157 1403 0 0 157 -614 0 0 2413 -176 0 0 -2361 0 -52 -53 0 -560 0zm560 52l0 0 0 53 0 -53z"/>
</symbol>
<symbol id="Fm11-26-0" viewBox="120783 -17568 1925 2847">
 <path class="fil0" d="M122707 -17568l-52 0 -327 0 0 1668c1,205 -9,342 -26,400l-114 224 -191 144 -244 52c-97,-1 -189,-22 -285,-67 -99,-46 -167,-99 -210,-161 -44,-64 -73,-143 -86,-243 -7,-38 -10,-160 -10,-349l0 -1668 -52 0 -327 0 0 1668c0,273 15,463 52,579 57,181 171,329 339,437 166,109 367,163 596,163l3 0 4 0c212,0 398,-58 550,-174 150,-114 254,-252 306,-410 51,-156 74,-353 74,-595l0 -1668zm-952 2593l4 0 5 0 5 -1 273 -59 9 -7 219 -164 5 -11 126 -246 2 -6c22,-80 30,-218 31,-431l0 -1563 168 0 0 1563c1,235 -23,423 -69,562 -44,136 -133,255 -269,359 -134,102 -295,153 -491,153 -213,0 -393,-49 -541,-146 -151,-97 -246,-222 -297,-380 -30,-94 -48,-281 -48,-548l0 -1563 170 0 0 1563c1,192 3,310 11,364 14,112 49,208 104,288 57,81 142,145 252,196 108,50 218,77 331,77z"/>
</symbol>
<symbol id="Fm4-37-0" viewBox="81843 -51163 2572 2214">
 <path class="fil2" d="M84415 -49322l-2018 366c-284,51 -547,-164 -554,-451l0 -1756 3 0c523,3 1499,704 2569,1841l0 0z"/>
</symbol>
<symbol id="Fm22-38-0" viewBox="100527 -61173 1612 2780">
 <path class="fil0" d="M102140 -61173l-1613 0 0 52 0 315 53 0 560 0 0 2413 53 0 334 0 0 -2413 613 0 0 -53 0 -314zm-1507 262l0 -157 1402 0 0 157 -613 0 0 2413 -176 0 0 -2361 0 -52 -53 0 -560 0zm560 52l0 0 0 53 0 -53z"/>
</symbol>
<symbol id="Fm14-29-0" viewBox="130203 -17567 1920 2779">
 <path class="fil0" d="M130802 -17567l-599 0 0 2726 0 53 53 0 327 0 0 -53 0 -1189 78 0 989 1242 26 0 448 0 -992 -1245c185,-9 337,-36 456,-88 140,-59 250,-150 326,-270 77,-119 114,-258 114,-412 1,-185 -55,-347 -166,-475 -108,-129 -253,-214 -427,-252 -117,-26 -325,-37 -633,-37zm-493 2674l-1 -2569 494 0c304,0 512,12 610,34 155,35 276,106 370,217 94,110 141,242 142,408 0,137 -34,255 -98,356 -65,101 -157,177 -279,230 -120,52 -296,81 -521,83l-108 1 988 1240 -205 0 -990 -1241 -25 0 -208 0 0 52 0 1189 -169 0zm707 -2413l0 0zm0 0l-538 0 0 52 0 962 53 0 473 4c187,0 328,-16 427,-55l7 -3 7 -5 218 -173 5 -16 78 -264 -4 -16 -80 -259 -12 -11 -204 -162 -8 -3c-93,-36 -232,-51 -422,-51l0 52 0 53 9 0c174,0 300,16 369,41l178 142 65 214 -65 219 -186 147c-76,28 -203,45 -373,45l-8 0 -422 -4 0 -804 433 0 0 -53 0 -52zm404 100l0 0z"/>
</symbol>
<symbol id="Fm8-61-0" viewBox="113990 -17567 2266 2779">
 <path class="fil0" d="M116256 -17567l-52 0 -325 0 0 1964 -1754 -1964 -23 0 -112 0 0 2779 52 0 285 0 0 -53 0 53 52 0 0 -1941 1739 1941 24 0 114 0 0 -2779zm-272 2240l0 -2135 167 0 0 2553 -1876 -2094 0 2110 -180 0 0 -2551 1889 2117z"/>
</symbol>
<symbol id="Fm36-53-0" viewBox="134893 -61240 1733 2914">
 <path class="fil0" d="M135808 -61240l-4 0 -3 0c-129,0 -250,31 -360,89 -111,59 -200,141 -262,246 -62,103 -93,220 -93,345 0,158 53,307 155,441 65,84 208,205 439,376 222,162 376,302 456,411l85 241 -55 193 -164 149 -239 58c-188,-2 -359,-130 -521,-415l-26 -47 -46 27 -277 163 25 45c117,208 247,360 393,453l0 1c144,93 306,138 483,138 229,0 427,-76 588,-229 161,-150 245,-335 244,-543 0,-147 -49,-292 -142,-431 -95,-143 -262,-297 -503,-470 -193,-139 -311,-229 -346,-261l-127 -166 -33 -147 88 -202c59,-53 131,-82 228,-84l226 60c61,38 145,122 244,248l31 39 41 -30 267 -196 -31 -42c-129,-172 -253,-291 -375,-360 -119,-66 -250,-100 -386,-100zm-40 2654l6 0 6 -2 272 -65 10 -10 197 -177 5 -15 68 -240 -6 -16 -96 -270 -5 -6c-91,-127 -253,-272 -482,-441 -228,-167 -370,-290 -418,-355 -91,-119 -134,-242 -135,-377 0,-108 26,-204 80,-291 51,-88 124,-155 220,-207 97,-51 201,-77 314,-77 121,0 235,29 340,86 93,52 197,148 308,290l-140 103c-93,-113 -173,-192 -248,-237l-6 -3 -7 -3 -245 -65 -7 0 -2 0c-121,0 -226,38 -305,112 -82,74 -124,172 -123,281l0 6 1 6 40 179 7 9 140 183 3 2c41,39 158,126 360,272 235,169 395,319 477,443 83,127 124,251 124,373 0,180 -68,331 -211,466 -144,135 -310,200 -516,201 -159,0 -299,-40 -426,-121l-26 40 -2 4 2 -5 26 -40c-117,-74 -228,-197 -333,-372l143 -83c163,273 360,422 590,422zm269 -2262l0 0zm145 1491l0 0z"/>
</symbol>
<symbol id="Fm10-25-0" viewBox="118464 -17567 1920 2779">
 <path class="fil0" d="M119064 -17567l-600 0 0 2726 0 53 52 0 328 0 0 -53 0 -1189 78 0 989 1242 26 0 448 0 -992 -1245c185,-9 337,-36 456,-88 140,-59 250,-150 326,-270 76,-119 114,-258 114,-412 1,-185 -55,-347 -166,-475 -108,-129 -253,-214 -427,-252 -118,-26 -325,-37 -632,-37zm-495 2674l0 -2569 495 0c303,0 511,12 609,34 155,35 276,106 370,217 94,110 141,242 142,408 -1,137 -34,255 -98,356 -65,101 -157,177 -280,230 -119,52 -295,81 -520,83l-109 1 989 1240 -206 0 -989 -1241 -25 0 -208 0 0 52 0 1189 -170 0zm708 -2413l0 0zm0 0l-538 0 0 52 0 962 52 0 474 4c187,0 328,-16 427,-55l7 -3 6 -5 219 -173 5 -16 78 -264 -4 -16 -80 -259 -12 -11 -204 -162 -8 -3c-93,-36 -232,-51 -422,-51l0 52 0 53 9 0c173,0 299,16 368,41l179 142 65 214 -65 219 -187 147c-77,28 -202,45 -371,45l-9 0 -422 -4 0 -804 433 0 0 -53 0 -52zm403 100l0 0z"/>
</symbol>
<symbol id="Fm5-38-0" viewBox="86701 -58269 2937 3570">
 <path class="fil1" d="M89638 -55887l-1967 1188 0 0c-281,-546 -604,-1059 -970,-1524l0 -1 2467 -2045 -991 1961 1461 421z"/>
</symbol>
<symbol id="Fm0-33-0" viewBox="84998 -49943 4858 4468">
 <path class="fil1" d="M89856 -48201c-7,1685 -1088,2722 -2422,2726l-14 0c-1339,-4 -2422,-1047 -2422,-2741 0,-600 136,-1201 371,-1727 -105,354 -163,729 -163,1103 0,1553 994,2507 2221,2507 1226,0 2221,-954 2221,-2507 0,-374 -58,-749 -163,-1103 230,517 366,1105 371,1695l0 47z"/>
</symbol>
<symbol id="Fm30-47-0" viewBox="118316 -61172 1920 2779">
 <path class="fil0" d="M118915 -61172l-599 0 0 2726 0 52 53 0 327 0 0 -52 0 -1189 77 0 990 1241 25 0 448 0 -991 -1244c185,-9 337,-37 456,-88 139,-60 250,-151 326,-270 76,-119 114,-258 114,-412 0,-186 -56,-347 -167,-476 -107,-129 -253,-213 -426,-251 -118,-26 -325,-37 -633,-37zm-494 2674l0 -2570 494 0c304,0 511,13 610,35 154,35 276,106 369,217 94,110 142,242 142,408 0,137 -33,254 -98,355 -65,101 -156,178 -279,230 -119,53 -295,81 -521,83l-108 2 988 1240 -204 0 -990 -1242 -25 0 -208 0 0 52 0 1190 -170 0zm707 -2413l0 0zm0 0l-537 0 0 52 0 961 51 1 475 4c187,0 327,-17 427,-55l7 -3 7 -5 218 -173 5 -16 77 -265 -4 -15 -79 -260 -13 -10 -203 -163 -8 -2c-93,-36 -232,-51 -423,-51l0 52 0 53 10 0c173,0 300,16 368,41l178 142 65 214 -64 219 -186 147c-77,28 -203,45 -373,45l-9 0 -421 -4 0 -804 432 0 0 -53 0 -52zm404 100l0 0z"/>
</symbol>
<symbol id="Fm18-33-0" viewBox="139759 -17567 2266 2779">
 <path class="fil0" d="M142025 -17567l-52 0 -325 0 0 1964 -1753 -1964 -24 0 -112 0 0 2779 53 0 284 0 0 -53 0 53 52 0 0 -1941 1739 1941 24 0 114 0 0 -2779zm-272 2240l0 -2135 167 0 0 2553 -1877 -2094 0 2110 -179 0 0 -2551 1889 2117z"/>
</symbol>
<symbol id="Fm13-28-0" viewBox="127646 -16010 1132 327">
 <path class="fil0" d="M128778 -16010l-52 0 -1080 0 0 53 0 221 0 53 52 0 1080 0 0 -53 0 -274zm-1028 105l923 0 0 117 -923 0 0 -117z"/>
</symbol>
<symbol id="Fm0-22-0" viewBox="100408 -66236 14640 16334">
 <image x="100408" y="-66241" width="14644" height="16338" xlink:href="Pupuk Indonesia_Images\Pupuk Indonesia_ImgID1.png"/>
</symbol>
 <g id="Layer_x0020_1">
  <metadata id="CorelCorpID_0Corel-Layer"/>
  <g id="Pupuk_x0020_Indonesia.cdr">
   <polygon class="fil3" points="-37074,36936 -38798,33126 -37304,32447 -35579,36257 "/>
   <polygon class="fil4" points="-53572,17070 -57460,15525 -56855,13999 -52965,15541 "/>
   <path class="fil5" d="M-29873 -22832c3593,0 6503,2913 6503,6505 0,3594 -2910,6507 -6503,6507 -3596,0 -6506,-2913 -6506,-6507 0,-3592 2910,-6505 6506,-6505zm0 1644c-2687,0 -4863,2178 -4863,4861 0,2685 2176,4863 4863,4863 2684,0 4861,-2178 4861,-4863 0,-2683 -2177,-4861 -4861,-4861z"/>
   <polygon class="fil5" points="-30745,-10439 -32011,-6453 -33576,-6951 -32310,-10937 "/>
   <polygon class="fil6" points="-37494,7540 -38761,11526 -40325,11028 -39056,7043 "/>
   <path class="fil7" d="M-16118 11913l0 -14120 5196 0c913,0 1612,45 2091,135 678,116 1244,334 1701,659 457,324 827,777 1105,1359 278,583 417,1224 417,1923 0,1199 -375,2213 -1118,3041 -744,830 -2089,1245 -4038,1245l-3529 0 0 5758 -1825 0zm1825 -7414l3557 0c1174,0 2010,-225 2505,-675 495,-448 741,-1082 741,-1898 0,-592 -146,-1094 -438,-1517 -291,-421 -673,-697 -1150,-834 -302,-84 -869,-126 -1698,-126l-3517 0 0 5050z"/>
   <path class="fil7" d="M16873 -2206l1827 0 0 8155c0,1420 -159,2546 -470,3379 -313,835 -874,1514 -1690,2038 -815,521 -1881,783 -3207,783 -1286,0 -2340,-226 -3161,-683 -813,-456 -1397,-1115 -1748,-1979 -349,-861 -527,-2041 -527,-3538l0 -8155 1829 0 0 8152c0,1227 111,2129 331,2712 220,580 602,1028 1141,1346 536,311 1194,468 1974,468 1332,0 2285,-312 2849,-932 568,-624 852,-1822 852,-3594l0 -8152z"/>
   <path class="fil7" d="M32932 11913l0 -14120 5196 0c913,0 1613,45 2091,135 679,116 1242,334 1702,659 457,324 824,777 1106,1359 275,583 414,1224 414,1923 0,1199 -373,2213 -1116,3041 -746,830 -2091,1245 -4038,1245l-3529 0 0 5758 -1826 0zm1826 -7414l3555 0c1176,0 2011,-225 2506,-675 495,-448 739,-1082 739,-1898 0,-592 -145,-1094 -434,-1517 -292,-421 -677,-697 -1147,-834 -310,-84 -875,-126 -1702,-126l-3517 0 0 5050z"/>
   <path class="fil7" d="M65924 -2206l1825 0 0 8155c0,1420 -157,2546 -469,3379 -313,835 -877,1514 -1691,2038 -816,521 -1882,783 -3208,783 -1288,0 -2338,-226 -3158,-683 -815,-456 -1400,-1115 -1750,-1979 -349,-861 -525,-2041 -525,-3538l0 -8155 1828 0 0 8152c0,1227 109,2129 331,2712 219,580 599,1028 1140,1346 537,311 1195,468 1974,468 1334,0 2285,-312 2851,-932 568,-624 852,-1822 852,-3594l0 -8152z"/>
   <polygon class="fil7" points="81905,11913 81905,-2207 83732,-2207 83732,4795 90562,-2207 93029,-2207 87259,3520 93280,11913 90879,11913 85978,4787 83732,7023 83732,11913 "/>
   <polygon class="fil7" points="-15895,15083 -13020,15083 -13020,27992 -15895,27992 "/>
   <polygon class="fil7" points="-10280,27992 -10280,15084 -7494,15084 -1650,23733 -1650,15084 1006,15084 1006,27992 -1864,27992 -7621,19506 -7621,27992 "/>
   <path class="fil7" d="M4069 15081l5231 0c1179,0 2080,85 2699,248 830,223 1544,618 2135,1188 591,571 1043,1266 1354,2091 311,826 465,1843 465,3053 0,1063 -145,1978 -435,2748 -355,937 -860,1697 -1518,2279 -498,440 -1169,786 -2011,1031 -633,183 -1479,272 -2533,272l-5387 0 0 -12910zm2877 2184l0 8544 2136 0c794,0 1368,-38 1724,-121 461,-107 845,-286 1156,-538 304,-253 552,-667 746,-1245 192,-578 290,-1366 290,-2363 0,-998 -98,-1763 -290,-2298 -194,-533 -465,-949 -809,-1247 -350,-300 -792,-504 -1324,-611 -399,-79 -1182,-121 -2347,-121l-1282 0z"/>
   <path class="fil7" d="M17824 21618c0,-1320 215,-2425 650,-3320 323,-660 764,-1251 1323,-1771 559,-524 1173,-912 1837,-1167 886,-343 1908,-512 3065,-512 2093,0 3768,592 5026,1773 1258,1184 1884,2828 1884,4935 0,2088 -621,3722 -1867,4901 -1248,1181 -2916,1770 -5004,1770 -2116,0 -3795,-589 -5039,-1762 -1250,-1172 -1875,-2788 -1875,-4847zm2955 -88c0,1461 373,2572 1117,3327 747,755 1692,1135 2837,1135 1144,0 2085,-376 2822,-1127 733,-746 1101,-1874 1101,-3374 0,-1480 -358,-2583 -1075,-3312 -717,-731 -1666,-1094 -2848,-1094 -1186,0 -2141,368 -2864,1106 -728,738 -1090,1849 -1090,3339z"/>
   <polygon class="fil7" points="33851,27992 33851,15084 36636,15084 42483,23733 42483,15084 45141,15084 45141,27992 42267,27992 36510,19506 36510,27992 "/>
   <polygon class="fil7" points="48203,27992 48203,15084 58716,15084 58716,17265 51077,17265 51077,20130 58179,20130 58179,22313 51077,22313 51077,25810 58992,25810 58992,27992 "/>
   <path class="fil7" d="M60670 23809l2798 -254c168,851 506,1476 1018,1873 511,399 1205,597 2072,597 923,0 1616,-176 2082,-531 468,-353 700,-768 700,-1243 0,-307 -99,-567 -292,-780 -198,-214 -541,-400 -1028,-558 -336,-107 -1095,-294 -2289,-567 -1528,-345 -2605,-772 -3223,-1279 -868,-711 -1301,-1580 -1301,-2605 0,-660 206,-1278 613,-1852 408,-574 999,-1013 1765,-1311 772,-301 1702,-450 2788,-450 1776,0 3114,359 4012,1073 896,720 1370,1676 1415,2875l-2874 90c-125,-666 -386,-1146 -785,-1436 -401,-293 -1001,-440 -1803,-440 -826,0 -1473,155 -1944,471 -298,198 -449,466 -449,802 0,308 141,568 424,788 362,276 1239,565 2629,867 1392,298 2422,608 3088,930 667,320 1189,756 1565,1310 377,555 565,1241 565,2058 0,740 -226,1432 -679,2081 -451,644 -1091,1122 -1916,1437 -825,313 -1856,470 -3090,470 -1796,0 -3175,-375 -4136,-1129 -962,-752 -1536,-1846 -1725,-3287z"/>
   <polygon class="fil7" points="74548,15083 77424,15083 77424,27992 74548,27992 "/>
   <path class="fil7" d="M92960 27992l-3098 0 -1229 -2939 -5697 0 -1177 2939 -3043 0 5513 -12908 3041 0 5690 12908zm-5259 -5121l-1973 -4776 -1917 4776 3890 0z"/>
   <polygon class="fil7" points="-17329,39407 -17329,34363 -16593,34363 -16593,36442 -13728,36442 -13728,34363 -12989,34363 -12989,39407 -13728,39407 -13728,37033 -16593,37033 -16593,39407 "/>
   <path class="fil7" d="M-9440 36952c0,-836 246,-1489 740,-1963 497,-474 1135,-709 1915,-709 515,0 976,111 1387,334 412,221 724,531 940,929 219,395 324,846 324,1351 0,510 -114,968 -338,1371 -230,402 -549,708 -968,916 -414,207 -863,309 -1347,309 -522,0 -986,-113 -1402,-342 -407,-231 -720,-542 -933,-939 -212,-395 -318,-812 -318,-1257zm759 10c0,609 177,1087 538,1435 361,349 811,522 1353,522 552,0 1007,-174 1363,-525 357,-356 533,-855 533,-1502 0,-409 -72,-766 -227,-1072 -153,-305 -377,-544 -667,-712 -298,-167 -625,-250 -992,-250 -517,0 -967,162 -1343,484 -369,325 -558,864 -558,1620z"/>
   <polygon class="fil7" points="-679,39407 -679,34363 57,34363 57,38816 2785,38816 2785,39407 "/>
   <path class="fil7" d="M6210 39407l0 -5044 1909 0c433,0 762,24 990,73 315,68 590,187 816,362 292,224 507,511 655,861 143,351 214,750 214,1199 0,382 -47,722 -146,1018 -97,294 -223,540 -378,733 -152,196 -321,348 -503,460 -185,111 -407,193 -667,253 -256,56 -553,85 -888,85l-2002 0zm736 -591l1181 0c365,0 653,-30 859,-94 210,-62 374,-149 495,-262 180,-157 314,-372 409,-640 98,-266 146,-591 146,-973 0,-527 -94,-933 -285,-1218 -190,-282 -421,-472 -693,-568 -195,-71 -512,-106 -951,-106l-1161 0 0 3861z"/>
   <polygon class="fil7" points="14475,34365 15212,34365 15212,39409 14475,39409 "/>
   <polygon class="fil7" points="19037,39407 19037,34363 19791,34363 22701,38324 22701,34363 23408,34363 23408,39407 22654,39407 19740,35447 19740,39407 "/>
   <path class="fil7" d="M29784 37427l0 -590 2349 0 0 1867c-361,261 -734,457 -1115,589 -386,133 -777,199 -1180,199 -547,0 -1042,-106 -1490,-318 -445,-213 -779,-521 -1004,-919 -229,-402 -345,-851 -345,-1345 0,-490 116,-948 342,-1373 226,-426 550,-741 974,-948 425,-207 913,-310 1466,-310 398,0 762,58 1083,180 329,116 580,280 763,491 184,211 326,487 421,827l-662 165c-85,-256 -188,-460 -310,-606 -123,-146 -301,-266 -529,-355 -230,-86 -485,-130 -763,-130 -337,0 -628,45 -871,138 -244,94 -440,216 -591,368 -148,151 -265,317 -348,501 -144,312 -214,650 -214,1015 0,449 86,828 256,1131 172,302 416,527 742,675 326,147 671,222 1036,222 317,0 627,-57 927,-168 304,-115 534,-232 690,-360l0 -946 -1627 0z"/>
   <path class="fil7" d="M44400 37638l734 168c-155,547 -429,967 -829,1253 -398,288 -886,433 -1464,433 -598,0 -1083,-113 -1455,-332 -377,-222 -659,-541 -856,-960 -194,-420 -292,-871 -292,-1352 0,-526 108,-984 328,-1373 223,-392 535,-688 944,-892 405,-203 855,-302 1342,-302 558,0 1019,124 1401,383 377,257 641,618 788,1083l-721 154c-125,-366 -315,-633 -558,-801 -246,-167 -553,-250 -921,-250 -428,0 -780,93 -1069,279 -286,186 -487,433 -601,750 -116,311 -175,633 -175,965 0,430 66,804 207,1123 136,321 350,557 638,717 291,159 603,238 937,238 410,0 758,-109 1044,-324 282,-216 476,-537 578,-960z"/>
   <path class="fil7" d="M48365 36952c0,-836 247,-1489 742,-1963 495,-474 1133,-709 1914,-709 516,0 977,111 1386,334 415,221 725,531 941,929 219,395 325,846 325,1351 0,510 -116,968 -342,1371 -228,402 -547,708 -965,916 -415,207 -864,309 -1347,309 -519,0 -988,-113 -1401,-342 -409,-231 -721,-542 -936,-939 -210,-395 -317,-812 -317,-1257zm759 10c0,609 180,1087 539,1435 362,349 810,522 1353,522 553,0 1006,-174 1361,-525 359,-356 535,-855 535,-1502 0,-409 -73,-766 -228,-1072 -153,-305 -375,-544 -666,-712 -298,-167 -625,-250 -990,-250 -521,0 -967,162 -1342,484 -375,325 -562,864 -562,1620z"/>
   <path class="fil7" d="M57140 39407l0 -5044 1104 0 1308 3570c123,332 213,582 267,747 63,-184 160,-454 296,-808l1336 -3509 985 0 0 5044 -710 0 0 -4217 -1616 4217 -663 0 -1602 -4297 0 4297 -705 0z"/>
   <path class="fil7" d="M66163 39407l0 -5044 2095 0c369,0 650,17 845,48 273,42 501,121 683,235 187,117 336,280 448,487 111,209 170,438 170,687 0,428 -154,788 -453,1086 -301,298 -844,445 -1628,445l-1423 0 0 2056 -737 0zm737 -2651l1435 0c470,0 808,-77 1010,-238 197,-160 295,-386 295,-678 0,-211 -54,-393 -173,-541 -119,-152 -274,-251 -463,-298 -123,-30 -355,-46 -686,-46l-1418 0 0 1801z"/>
   <path class="fil7" d="M72748 39407l2124 -5044 808 0 2262 5044 -835 0 -644 -1529 -2334 0 -603 1529 -778 0zm1597 -2071l1889 0 -580 -1398c-173,-423 -308,-776 -396,-1053 -75,327 -178,652 -308,971l-605 1480z"/>
   <polygon class="fil7" points="81050,39407 81050,34363 81806,34363 84718,38324 84718,34363 85423,34363 85423,39407 84665,39407 81756,35447 81756,39407 "/>
   <path class="fil7" d="M90767 39407l0 -2137 -2140 -2907 883 0 1095 1525c205,285 397,569 569,849 170,-263 377,-557 612,-888l1078 -1486 855 0 -2217 2907 0 2137 -735 0z"/>
   <g style="clip-path:url(#id0)">
    <image x="-72724" y="4478" width="16704" height="16921" xlink:href="Pupuk Indonesia_Images\Pupuk Indonesia_ImgID2.png"/>
   </g>
   <g style="clip-path:url(#id1)">
    <image x="-55750" y="9259" width="25393" height="25393" xlink:href="Pupuk Indonesia_Images\Pupuk Indonesia_ImgID3.png"/>
   </g>
   <g style="clip-path:url(#id2)">
    <image x="-44274" y="-8506" width="17296" height="17296" xlink:href="Pupuk Indonesia_Images\Pupuk Indonesia_ImgID4.png"/>
   </g>
   <g style="clip-path:url(#id3)">
    <image x="-41121" y="34822" width="17704" height="18141" xlink:href="Pupuk Indonesia_Images\Pupuk Indonesia_ImgID5.png"/>
   </g>
  </g>
 </g>
</svg>
